<mxfile host="app.diagrams.net" modified="2023-12-15T11:01:49.647Z" agent="Mozilla/5.0 (Windows NT 10.0; Win64; x64; rv:120.0) Gecko/20100101 Firefox/120.0" etag="BurkwahdGP7jN5gj_9UD" version="22.1.9" type="device">
  <diagram name="Seite-1" id="-DtqbBGdyM-UcHPYLAKt">
    <mxGraphModel dx="1430" dy="763" grid="1" gridSize="10" guides="1" tooltips="1" connect="1" arrows="1" fold="1" page="1" pageScale="1" pageWidth="827" pageHeight="1169" math="0" shadow="0">
      <root>
        <mxCell id="0" />
        <mxCell id="1" parent="0" />
        <mxCell id="lBnUi5RaAprGC21Dq-h6-3" style="edgeStyle=orthogonalEdgeStyle;rounded=0;orthogonalLoop=1;jettySize=auto;html=1;exitX=0.75;exitY=1;exitDx=0;exitDy=0;endArrow=none;endFill=0;" edge="1" parent="1">
          <mxGeometry relative="1" as="geometry">
            <mxPoint x="151" y="440" as="targetPoint" />
            <mxPoint x="441" y="340" as="sourcePoint" />
            <Array as="points">
              <mxPoint x="441" y="440" />
              <mxPoint x="171" y="440" />
              <mxPoint x="171" y="440" />
            </Array>
          </mxGeometry>
        </mxCell>
        <mxCell id="lBnUi5RaAprGC21Dq-h6-6" value="3,3V" style="edgeLabel;html=1;align=center;verticalAlign=middle;resizable=0;points=[];" vertex="1" connectable="0" parent="lBnUi5RaAprGC21Dq-h6-3">
          <mxGeometry x="0.0182" relative="1" as="geometry">
            <mxPoint x="74" y="-120" as="offset" />
          </mxGeometry>
        </mxCell>
        <mxCell id="lBnUi5RaAprGC21Dq-h6-22" value="3,3V" style="edgeLabel;html=1;align=center;verticalAlign=middle;resizable=0;points=[];" vertex="1" connectable="0" parent="lBnUi5RaAprGC21Dq-h6-3">
          <mxGeometry x="-0.9503" y="-2" relative="1" as="geometry">
            <mxPoint as="offset" />
          </mxGeometry>
        </mxCell>
        <mxCell id="lBnUi5RaAprGC21Dq-h6-4" style="edgeStyle=orthogonalEdgeStyle;rounded=0;orthogonalLoop=1;jettySize=auto;html=1;exitX=0.75;exitY=0;exitDx=0;exitDy=0;endArrow=none;endFill=0;" edge="1" parent="1">
          <mxGeometry relative="1" as="geometry">
            <mxPoint x="234" y="400" as="targetPoint" />
            <mxPoint x="434" y="280" as="sourcePoint" />
            <Array as="points">
              <mxPoint x="434" y="260" />
              <mxPoint x="484" y="260" />
            </Array>
          </mxGeometry>
        </mxCell>
        <mxCell id="lBnUi5RaAprGC21Dq-h6-5" value="GND" style="edgeLabel;html=1;align=center;verticalAlign=middle;resizable=0;points=[];" vertex="1" connectable="0" parent="lBnUi5RaAprGC21Dq-h6-4">
          <mxGeometry x="0.3499" relative="1" as="geometry">
            <mxPoint x="56" y="-132" as="offset" />
          </mxGeometry>
        </mxCell>
        <mxCell id="lBnUi5RaAprGC21Dq-h6-46" style="edgeStyle=orthogonalEdgeStyle;rounded=0;orthogonalLoop=1;jettySize=auto;html=1;entryX=0;entryY=0.5;entryDx=0;entryDy=0;" edge="1" parent="1" source="lBnUi5RaAprGC21Dq-h6-1" target="lBnUi5RaAprGC21Dq-h6-44">
          <mxGeometry relative="1" as="geometry" />
        </mxCell>
        <mxCell id="lBnUi5RaAprGC21Dq-h6-47" value="Programm assigns" style="edgeLabel;html=1;align=center;verticalAlign=middle;resizable=0;points=[];" vertex="1" connectable="0" parent="lBnUi5RaAprGC21Dq-h6-46">
          <mxGeometry x="0.078" y="2" relative="1" as="geometry">
            <mxPoint x="2" y="1" as="offset" />
          </mxGeometry>
        </mxCell>
        <mxCell id="lBnUi5RaAprGC21Dq-h6-1" value="Particle Photon" style="rounded=0;whiteSpace=wrap;html=1;" vertex="1" parent="1">
          <mxGeometry x="350" y="280" width="120" height="60" as="geometry" />
        </mxCell>
        <mxCell id="lBnUi5RaAprGC21Dq-h6-12" value="" style="endArrow=none;html=1;rounded=0;edgeStyle=orthogonalEdgeStyle;exitX=0.25;exitY=0;exitDx=0;exitDy=0;entryX=1;entryY=0.5;entryDx=0;entryDy=0;entryPerimeter=0;" edge="1" parent="1" source="lBnUi5RaAprGC21Dq-h6-1" target="lBnUi5RaAprGC21Dq-h6-15">
          <mxGeometry width="50" height="50" relative="1" as="geometry">
            <mxPoint x="170" y="260" as="sourcePoint" />
            <mxPoint x="240" y="380" as="targetPoint" />
            <Array as="points">
              <mxPoint x="380" y="260" />
              <mxPoint x="330" y="260" />
              <mxPoint x="330" y="380" />
              <mxPoint x="235" y="380" />
            </Array>
          </mxGeometry>
        </mxCell>
        <mxCell id="lBnUi5RaAprGC21Dq-h6-14" value="A0..A2" style="edgeLabel;html=1;align=center;verticalAlign=middle;resizable=0;points=[];" vertex="1" connectable="0" parent="lBnUi5RaAprGC21Dq-h6-12">
          <mxGeometry x="-0.916" y="-1" relative="1" as="geometry">
            <mxPoint as="offset" />
          </mxGeometry>
        </mxCell>
        <mxCell id="lBnUi5RaAprGC21Dq-h6-18" value="Measure Point" style="edgeLabel;html=1;align=center;verticalAlign=middle;resizable=0;points=[];" vertex="1" connectable="0" parent="lBnUi5RaAprGC21Dq-h6-12">
          <mxGeometry x="0.7184" y="2" relative="1" as="geometry">
            <mxPoint x="16" as="offset" />
          </mxGeometry>
        </mxCell>
        <mxCell id="lBnUi5RaAprGC21Dq-h6-17" style="edgeStyle=orthogonalEdgeStyle;rounded=0;orthogonalLoop=1;jettySize=auto;html=1;entryX=0.807;entryY=0.533;entryDx=0;entryDy=0;entryPerimeter=0;endArrow=none;endFill=0;" edge="1" parent="1" source="lBnUi5RaAprGC21Dq-h6-15">
          <mxGeometry relative="1" as="geometry">
            <mxPoint x="234.79500000000007" y="399.66999999999996" as="targetPoint" />
          </mxGeometry>
        </mxCell>
        <mxCell id="lBnUi5RaAprGC21Dq-h6-15" value="220 Ohm" style="pointerEvents=1;verticalLabelPosition=bottom;shadow=0;dashed=0;align=center;html=1;verticalAlign=top;shape=mxgraph.electrical.resistors.resistor_1;rotation=90;" vertex="1" parent="1">
          <mxGeometry x="200" y="325" width="70" height="15" as="geometry" />
        </mxCell>
        <mxCell id="lBnUi5RaAprGC21Dq-h6-27" style="edgeStyle=orthogonalEdgeStyle;rounded=0;orthogonalLoop=1;jettySize=auto;html=1;endArrow=none;endFill=0;" edge="1" parent="1" source="lBnUi5RaAprGC21Dq-h6-23">
          <mxGeometry relative="1" as="geometry">
            <mxPoint x="150" y="440" as="targetPoint" />
            <Array as="points">
              <mxPoint x="150" y="217" />
            </Array>
          </mxGeometry>
        </mxCell>
        <mxCell id="lBnUi5RaAprGC21Dq-h6-23" value="X Ohm" style="pointerEvents=1;verticalLabelPosition=bottom;shadow=0;dashed=0;align=center;html=1;verticalAlign=top;shape=mxgraph.electrical.resistors.resistor_1;rotation=0;" vertex="1" parent="1">
          <mxGeometry x="170" y="210" width="40" height="15" as="geometry" />
        </mxCell>
        <mxCell id="lBnUi5RaAprGC21Dq-h6-26" style="edgeStyle=orthogonalEdgeStyle;rounded=0;orthogonalLoop=1;jettySize=auto;html=1;entryX=0;entryY=0.5;entryDx=0;entryDy=0;entryPerimeter=0;endArrow=none;endFill=0;" edge="1" parent="1" source="lBnUi5RaAprGC21Dq-h6-23" target="lBnUi5RaAprGC21Dq-h6-15">
          <mxGeometry relative="1" as="geometry" />
        </mxCell>
        <mxCell id="lBnUi5RaAprGC21Dq-h6-41" value="Electric Circuit" style="swimlane;whiteSpace=wrap;html=1;" vertex="1" parent="1">
          <mxGeometry x="90" y="140" width="420" height="340" as="geometry" />
        </mxCell>
        <mxCell id="lBnUi5RaAprGC21Dq-h6-42" value="3x Key Measure" style="swimlane;whiteSpace=wrap;html=1;" vertex="1" parent="lBnUi5RaAprGC21Dq-h6-41">
          <mxGeometry x="20" y="40" width="230" height="272.5" as="geometry" />
        </mxCell>
        <mxCell id="lBnUi5RaAprGC21Dq-h6-45" value="" style="group" vertex="1" connectable="0" parent="1">
          <mxGeometry x="590" y="30" width="200" height="200" as="geometry" />
        </mxCell>
        <mxCell id="lBnUi5RaAprGC21Dq-h6-31" value="220 Ohm" style="pointerEvents=1;verticalLabelPosition=bottom;shadow=0;dashed=0;align=center;html=1;verticalAlign=top;shape=mxgraph.electrical.resistors.resistor_1;" vertex="1" parent="lBnUi5RaAprGC21Dq-h6-45">
          <mxGeometry x="20" y="40" width="100" height="20" as="geometry" />
        </mxCell>
        <mxCell id="lBnUi5RaAprGC21Dq-h6-32" value="330 Ohm" style="pointerEvents=1;verticalLabelPosition=bottom;shadow=0;dashed=0;align=center;html=1;verticalAlign=top;shape=mxgraph.electrical.resistors.resistor_1;" vertex="1" parent="lBnUi5RaAprGC21Dq-h6-45">
          <mxGeometry x="20" y="140" width="100" height="20" as="geometry" />
        </mxCell>
        <mxCell id="lBnUi5RaAprGC21Dq-h6-33" value="100 Ohm" style="pointerEvents=1;verticalLabelPosition=bottom;shadow=0;dashed=0;align=center;html=1;verticalAlign=top;shape=mxgraph.electrical.resistors.resistor_1;" vertex="1" parent="lBnUi5RaAprGC21Dq-h6-45">
          <mxGeometry x="20" y="90" width="100" height="20" as="geometry" />
        </mxCell>
        <mxCell id="lBnUi5RaAprGC21Dq-h6-37" value="Key 1" style="text;html=1;strokeColor=none;fillColor=none;align=center;verticalAlign=middle;whiteSpace=wrap;rounded=0;" vertex="1" parent="lBnUi5RaAprGC21Dq-h6-45">
          <mxGeometry x="120" y="35" width="60" height="30" as="geometry" />
        </mxCell>
        <mxCell id="lBnUi5RaAprGC21Dq-h6-38" value="Key 2" style="text;html=1;strokeColor=none;fillColor=none;align=center;verticalAlign=middle;whiteSpace=wrap;rounded=0;" vertex="1" parent="lBnUi5RaAprGC21Dq-h6-45">
          <mxGeometry x="120" y="85" width="60" height="30" as="geometry" />
        </mxCell>
        <mxCell id="lBnUi5RaAprGC21Dq-h6-39" value="Key 3" style="text;html=1;strokeColor=none;fillColor=none;align=center;verticalAlign=middle;whiteSpace=wrap;rounded=0;" vertex="1" parent="lBnUi5RaAprGC21Dq-h6-45">
          <mxGeometry x="120" y="135" width="60" height="30" as="geometry" />
        </mxCell>
        <mxCell id="lBnUi5RaAprGC21Dq-h6-44" value="Key Resistors Map" style="swimlane;whiteSpace=wrap;html=1;" vertex="1" parent="lBnUi5RaAprGC21Dq-h6-45">
          <mxGeometry width="200" height="200" as="geometry" />
        </mxCell>
        <mxCell id="lBnUi5RaAprGC21Dq-h6-53" style="edgeStyle=orthogonalEdgeStyle;rounded=0;orthogonalLoop=1;jettySize=auto;html=1;" edge="1" parent="1" source="lBnUi5RaAprGC21Dq-h6-50" target="lBnUi5RaAprGC21Dq-h6-23">
          <mxGeometry relative="1" as="geometry">
            <Array as="points">
              <mxPoint x="180" y="130" />
              <mxPoint x="190" y="130" />
            </Array>
          </mxGeometry>
        </mxCell>
        <mxCell id="lBnUi5RaAprGC21Dq-h6-54" style="edgeStyle=orthogonalEdgeStyle;rounded=0;orthogonalLoop=1;jettySize=auto;html=1;" edge="1" parent="1" source="lBnUi5RaAprGC21Dq-h6-51">
          <mxGeometry relative="1" as="geometry">
            <mxPoint x="190" y="210" as="targetPoint" />
            <Array as="points">
              <mxPoint x="300" y="130" />
              <mxPoint x="190" y="130" />
            </Array>
          </mxGeometry>
        </mxCell>
        <mxCell id="lBnUi5RaAprGC21Dq-h6-59" value="" style="group" vertex="1" connectable="0" parent="1">
          <mxGeometry x="150" y="30" width="370" height="60" as="geometry" />
        </mxCell>
        <mxCell id="lBnUi5RaAprGC21Dq-h6-49" value="" style="rounded=0;whiteSpace=wrap;html=1;" vertex="1" parent="lBnUi5RaAprGC21Dq-h6-59">
          <mxGeometry width="340.7894736842105" height="54.55" as="geometry" />
        </mxCell>
        <mxCell id="lBnUi5RaAprGC21Dq-h6-50" value="" style="ellipse;whiteSpace=wrap;html=1;aspect=fixed;" vertex="1" parent="lBnUi5RaAprGC21Dq-h6-59">
          <mxGeometry x="44.047619047619044" y="5.454545454545454" width="42.48803827751196" height="42.48803827751196" as="geometry" />
        </mxCell>
        <mxCell id="lBnUi5RaAprGC21Dq-h6-51" value="" style="ellipse;whiteSpace=wrap;html=1;aspect=fixed;" vertex="1" parent="lBnUi5RaAprGC21Dq-h6-59">
          <mxGeometry x="149.76190476190476" y="5.454545454545454" width="42.48803827751196" height="42.48803827751196" as="geometry" />
        </mxCell>
        <mxCell id="lBnUi5RaAprGC21Dq-h6-55" style="edgeStyle=orthogonalEdgeStyle;rounded=0;orthogonalLoop=1;jettySize=auto;html=1;endArrow=none;endFill=0;" edge="1" parent="lBnUi5RaAprGC21Dq-h6-59" source="lBnUi5RaAprGC21Dq-h6-52">
          <mxGeometry relative="1" as="geometry">
            <mxPoint x="40" y="180" as="targetPoint" />
            <Array as="points">
              <mxPoint x="291" y="100" />
              <mxPoint x="40" y="100" />
              <mxPoint x="40" y="170" />
            </Array>
          </mxGeometry>
        </mxCell>
        <mxCell id="lBnUi5RaAprGC21Dq-h6-63" value="Inserted Key closes measurecircuit" style="edgeLabel;html=1;align=center;verticalAlign=middle;resizable=0;points=[];" vertex="1" connectable="0" parent="lBnUi5RaAprGC21Dq-h6-55">
          <mxGeometry x="0.3826" y="-3" relative="1" as="geometry">
            <mxPoint x="70" y="3" as="offset" />
          </mxGeometry>
        </mxCell>
        <mxCell id="lBnUi5RaAprGC21Dq-h6-52" value="" style="ellipse;whiteSpace=wrap;html=1;aspect=fixed;" vertex="1" parent="lBnUi5RaAprGC21Dq-h6-59">
          <mxGeometry x="255.47619047619045" y="5.454545454545454" width="42.48803827751196" height="42.48803827751196" as="geometry" />
        </mxCell>
        <mxCell id="lBnUi5RaAprGC21Dq-h6-56" value="" style="points=[[0,0.5,0],[0.24,0,0],[0.5,0.28,0],[0.995,0.475,0],[0.5,0.72,0],[0.24,1,0]];verticalLabelPosition=bottom;sketch=0;html=1;verticalAlign=top;aspect=fixed;align=center;pointerEvents=1;shape=mxgraph.cisco19.key;fillColor=#005073;strokeColor=none;" vertex="1" parent="lBnUi5RaAprGC21Dq-h6-59">
          <mxGeometry x="158.57142857142856" y="21.136363636363637" width="26.555023923444978" height="11.94976076555024" as="geometry" />
        </mxCell>
        <mxCell id="lBnUi5RaAprGC21Dq-h6-57" value="" style="points=[[0,0.5,0],[0.24,0,0],[0.5,0.28,0],[0.995,0.475,0],[0.5,0.72,0],[0.24,1,0]];verticalLabelPosition=bottom;sketch=0;html=1;verticalAlign=top;aspect=fixed;align=center;pointerEvents=1;shape=mxgraph.cisco19.key;fillColor=#005073;strokeColor=none;" vertex="1" parent="lBnUi5RaAprGC21Dq-h6-59">
          <mxGeometry x="57.26190476190476" y="21.136363636363637" width="26.555023923444978" height="11.94976076555024" as="geometry" />
        </mxCell>
        <mxCell id="lBnUi5RaAprGC21Dq-h6-58" value="" style="points=[[0,0.5,0],[0.24,0,0],[0.5,0.28,0],[0.995,0.475,0],[0.5,0.72,0],[0.24,1,0]];verticalLabelPosition=bottom;sketch=0;html=1;verticalAlign=top;aspect=fixed;align=center;pointerEvents=1;shape=mxgraph.cisco19.key;fillColor=#005073;strokeColor=none;" vertex="1" parent="lBnUi5RaAprGC21Dq-h6-59">
          <mxGeometry x="263.4047619047619" y="21.136363636363637" width="26.555023923444978" height="11.94976076555024" as="geometry" />
        </mxCell>
        <mxCell id="lBnUi5RaAprGC21Dq-h6-61" style="edgeStyle=orthogonalEdgeStyle;rounded=0;orthogonalLoop=1;jettySize=auto;html=1;entryX=1;entryY=0.5;entryDx=0;entryDy=0;" edge="1" parent="1">
          <mxGeometry relative="1" as="geometry">
            <mxPoint x="590" y="59.03448275862081" as="sourcePoint" />
            <mxPoint x="490.78947368421063" y="56.274999999999864" as="targetPoint" />
            <Array as="points">
              <mxPoint x="590" y="56" />
            </Array>
          </mxGeometry>
        </mxCell>
        <mxCell id="lBnUi5RaAprGC21Dq-h6-62" value="Key Resistors" style="edgeLabel;html=1;align=center;verticalAlign=middle;resizable=0;points=[];" vertex="1" connectable="0" parent="lBnUi5RaAprGC21Dq-h6-61">
          <mxGeometry x="0.1766" y="-1" relative="1" as="geometry">
            <mxPoint x="7" y="1" as="offset" />
          </mxGeometry>
        </mxCell>
        <mxCell id="lBnUi5RaAprGC21Dq-h6-64" value="" style="html=1;outlineConnect=0;fillColor=#CCCCCC;strokeColor=#6881B3;gradientColor=none;gradientDirection=north;strokeWidth=2;shape=mxgraph.networks.cloud;fontColor=#ffffff;" vertex="1" parent="1">
          <mxGeometry x="620" y="285" width="90" height="50" as="geometry" />
        </mxCell>
        <mxCell id="lBnUi5RaAprGC21Dq-h6-66" style="edgeStyle=orthogonalEdgeStyle;rounded=0;orthogonalLoop=1;jettySize=auto;html=1;entryX=0.111;entryY=0.501;entryDx=0;entryDy=0;entryPerimeter=0;" edge="1" parent="1" source="lBnUi5RaAprGC21Dq-h6-1" target="lBnUi5RaAprGC21Dq-h6-64">
          <mxGeometry relative="1" as="geometry">
            <Array as="points" />
          </mxGeometry>
        </mxCell>
        <mxCell id="lBnUi5RaAprGC21Dq-h6-67" value="Cloud Events" style="text;html=1;strokeColor=none;fillColor=none;align=center;verticalAlign=middle;whiteSpace=wrap;rounded=0;" vertex="1" parent="1">
          <mxGeometry x="635" y="335" width="60" height="30" as="geometry" />
        </mxCell>
        <mxCell id="lBnUi5RaAprGC21Dq-h6-68" value="Web Server" style="fontColor=#0066CC;verticalAlign=top;verticalLabelPosition=bottom;labelPosition=center;align=center;html=1;outlineConnect=0;fillColor=#CCCCCC;strokeColor=#6881B3;gradientColor=none;gradientDirection=north;strokeWidth=2;shape=mxgraph.networks.server;" vertex="1" parent="1">
          <mxGeometry x="630" y="400" width="70" height="80" as="geometry" />
        </mxCell>
        <mxCell id="lBnUi5RaAprGC21Dq-h6-71" style="edgeStyle=orthogonalEdgeStyle;rounded=0;orthogonalLoop=1;jettySize=auto;html=1;entryX=0.91;entryY=0.5;entryDx=0;entryDy=0;entryPerimeter=0;" edge="1" parent="1" source="lBnUi5RaAprGC21Dq-h6-68" target="lBnUi5RaAprGC21Dq-h6-64">
          <mxGeometry relative="1" as="geometry">
            <Array as="points">
              <mxPoint x="730" y="440" />
              <mxPoint x="730" y="310" />
            </Array>
          </mxGeometry>
        </mxCell>
        <mxCell id="lBnUi5RaAprGC21Dq-h6-72" value="Subscribes to" style="edgeLabel;html=1;align=center;verticalAlign=middle;resizable=0;points=[];" vertex="1" connectable="0" parent="lBnUi5RaAprGC21Dq-h6-71">
          <mxGeometry x="0.0185" y="-1" relative="1" as="geometry">
            <mxPoint as="offset" />
          </mxGeometry>
        </mxCell>
        <mxCell id="lBnUi5RaAprGC21Dq-h6-76" value="Frontend Devices" style="swimlane;whiteSpace=wrap;html=1;" vertex="1" parent="1">
          <mxGeometry x="510" y="550" width="309" height="170" as="geometry" />
        </mxCell>
        <mxCell id="lBnUi5RaAprGC21Dq-h6-73" value="" style="fontColor=#0066CC;verticalAlign=top;verticalLabelPosition=bottom;labelPosition=center;align=center;html=1;outlineConnect=0;fillColor=#CCCCCC;strokeColor=#6881B3;gradientColor=none;gradientDirection=north;strokeWidth=2;shape=mxgraph.networks.laptop;" vertex="1" parent="lBnUi5RaAprGC21Dq-h6-76">
          <mxGeometry x="15.54000000000002" y="80" width="100" height="55" as="geometry" />
        </mxCell>
        <mxCell id="lBnUi5RaAprGC21Dq-h6-74" value="" style="fontColor=#0066CC;verticalAlign=top;verticalLabelPosition=bottom;labelPosition=center;align=center;html=1;outlineConnect=0;fillColor=#CCCCCC;strokeColor=#6881B3;gradientColor=none;gradientDirection=north;strokeWidth=2;shape=mxgraph.networks.pc;" vertex="1" parent="lBnUi5RaAprGC21Dq-h6-76">
          <mxGeometry x="129" y="72.5" width="100" height="70" as="geometry" />
        </mxCell>
        <mxCell id="lBnUi5RaAprGC21Dq-h6-75" value="" style="fontColor=#0066CC;verticalAlign=top;verticalLabelPosition=bottom;labelPosition=center;align=center;html=1;outlineConnect=0;fillColor=#CCCCCC;strokeColor=#6881B3;gradientColor=none;gradientDirection=north;strokeWidth=2;shape=mxgraph.networks.mobile;" vertex="1" parent="lBnUi5RaAprGC21Dq-h6-76">
          <mxGeometry x="249" y="50" width="50" height="100" as="geometry" />
        </mxCell>
        <mxCell id="lBnUi5RaAprGC21Dq-h6-77" style="edgeStyle=orthogonalEdgeStyle;rounded=0;orthogonalLoop=1;jettySize=auto;html=1;entryX=0;entryY=0.5;entryDx=0;entryDy=0;entryPerimeter=0;" edge="1" parent="1" source="lBnUi5RaAprGC21Dq-h6-76" target="lBnUi5RaAprGC21Dq-h6-68">
          <mxGeometry relative="1" as="geometry">
            <Array as="points">
              <mxPoint x="580" y="440" />
            </Array>
          </mxGeometry>
        </mxCell>
        <mxCell id="lBnUi5RaAprGC21Dq-h6-78" value="Use Web App" style="edgeLabel;html=1;align=center;verticalAlign=middle;resizable=0;points=[];" vertex="1" connectable="0" parent="lBnUi5RaAprGC21Dq-h6-77">
          <mxGeometry x="-0.2856" relative="1" as="geometry">
            <mxPoint as="offset" />
          </mxGeometry>
        </mxCell>
      </root>
    </mxGraphModel>
  </diagram>
</mxfile>
